<svg width="189" height="217" viewBox="0 0 189 217" fill="#016CEC" xmlns="http://www.w3.org/2000/svg">
<path id="Union" fill-rule="evenodd"
 clip-rule="evenodd" d="M106.677 153.897H116.289H146.475C147.162 153.897 147.821 153.61 148.288 153.106C148.756 152.601 148.993 151.92 148.941 151.235L144.733 96.0176C143.607 83.9384 133.831 74.4744 122.475 74.4744H116.289C116.264 74.4744 116.242 74.4812 116.22 74.488C116.2 74.4942 116.18 74.5005 116.158 74.5016L114.555 27.13C114.01 11.9159 101.731 0 86.5982 0C71.4633 0 59.1837 11.9159 58.6418 27.1324L57.036 74.5487C56.983 74.5415 56.9325 74.5277 56.8822 74.5138C56.8102 74.4941 56.7385 74.4744 56.66 74.4744H50.4744C39.1176 74.4744 29.3395 83.9384 28.2137 96.0596L24.0075 151.235C23.9555 151.92 24.1906 152.601 24.6607 153.106C25.1283 153.61 25.7865 153.897 26.4743 153.897H56.9074H66.5198C66.3862 154.202 66.3095 154.533 66.3095 154.887C66.3095 158.363 66.9552 161.718 68.1132 164.843C59.1812 165.165 51.182 169.134 45.5432 175.319C43.5465 175.109 41.5053 174.928 39.5877 174.928C17.76 174.928 0 192.688 0 214.516C0 215.884 1.10846 216.99 2.47423 216.99C3.84001 216.99 4.94847 215.884 4.94847 214.516C4.94847 195.415 20.4867 179.877 39.5877 179.877C40.2905 179.877 41.0455 179.925 41.8009 179.973L42.0001 179.986C38.9222 184.917 37.1135 190.719 37.1135 196.949C37.1135 198.317 38.222 199.423 39.5877 199.423C40.9535 199.423 42.062 198.317 42.062 196.949C42.062 181.943 54.2723 169.732 69.2785 169.732C69.6546 169.732 70.001 169.636 70.3202 169.485C73.7396 175.24 79.1482 179.753 85.8163 181.975C85.8188 181.975 85.8237 181.975 85.8262 181.977C86.0736 182.059 86.3334 182.104 86.5982 182.104C86.8629 182.104 87.1227 182.059 87.3701 181.977C87.3722 181.976 87.3739 181.976 87.3754 181.976C87.3776 181.976 87.3796 181.976 87.3825 181.975C99.051 178.09 106.889 167.201 106.889 154.887C106.887 154.533 106.81 154.202 106.677 153.897ZM63.5952 27.2166H109.604C109.604 27.234 109.606 27.2515 109.608 27.2696C109.609 27.2797 109.61 27.2901 109.611 27.3007L113.218 133.856H92.8357L93.7735 111.835C94.0209 107.877 90.5569 104.413 86.1033 104.165C82.1445 104.165 78.6806 107.629 78.928 111.835L79.8658 133.856H59.9804L63.5878 27.3056C63.5878 27.2858 63.59 27.266 63.5922 27.2462L63.5935 27.2339L63.5952 27.2166ZM122.475 79.4229C131.3 79.4229 138.916 86.9124 139.802 96.4357L143.805 148.949H118.679L116.324 79.4229H122.475ZM33.1448 96.4778C34.0331 86.9149 41.6463 79.4229 50.4744 79.4229H56.66C56.6995 79.4229 56.7363 79.4123 56.7732 79.4017C56.8056 79.3925 56.8381 79.3831 56.8727 79.3808L54.5148 148.949H29.144L33.1448 96.4778ZM86.5982 176.987C77.3915 173.555 71.2579 164.786 71.2579 154.887C71.2579 154.533 71.1787 154.202 71.0476 153.9H80.7194L80.9074 158.351C81.1549 161.32 83.3817 163.547 86.3507 163.547C89.3198 163.547 91.7941 161.32 91.7941 158.351L91.9846 153.897H102.151C102.018 154.202 101.938 154.533 101.938 154.887C101.938 164.786 95.8023 173.555 86.5982 176.987ZM86.5979 71.0106C94.9188 71.0106 101.691 64.2411 101.691 55.9177C101.691 47.5944 94.9212 40.8249 86.5979 40.8249C78.2746 40.8249 71.5051 47.5944 71.5051 55.9177C71.5051 64.2411 78.2746 71.0106 86.5979 71.0106ZM86.5979 45.7734C92.1922 45.7734 96.7423 50.3235 96.7423 55.9177C96.7423 61.512 92.1922 66.0621 86.5979 66.0621C81.0037 66.0621 76.4536 61.512 76.4536 55.9177C76.4536 50.3235 81.0037 45.7734 86.5979 45.7734ZM156.166 182.695C157.982 182.314 159.868 182.104 161.815 182.104C176.661 182.104 188.289 193.732 188.287 208.578C188.287 209.946 187.181 211.052 185.813 211.052C184.444 211.052 183.338 209.946 183.338 208.578C183.338 196.506 173.884 187.052 161.815 187.052C149.743 187.052 140.289 196.506 140.289 208.578C140.289 209.946 139.183 211.052 137.815 211.052C136.447 211.052 135.341 209.946 135.341 208.578C135.341 197.451 141.873 188.133 151.394 184.162C147.388 175.445 138.733 169.732 129.155 169.732C115.648 169.732 104.66 180.72 104.66 194.227C104.66 195.596 103.554 196.702 102.186 196.702C100.818 196.702 99.7118 195.596 99.7118 194.227C99.7118 177.994 112.919 164.784 129.155 164.784C140.895 164.784 151.488 171.895 156.166 182.695ZM16.2951 54.928C16.78 55.4228 17.4208 55.6703 18.0617 55.6703C18.6852 55.6703 19.3112 55.4352 19.7936 54.9626L24.371 50.4744L28.9483 54.9626C29.4308 55.4352 30.0568 55.6703 30.6803 55.6703C31.3211 55.6703 31.9619 55.4228 32.4469 54.928C33.4044 53.9507 33.3871 52.3845 32.4122 51.4294L27.9042 47.0104L32.4122 42.5915C33.3871 41.6364 33.4019 40.0677 32.4469 39.0929C31.4918 38.118 29.9232 38.1007 28.9483 39.0583L24.371 43.5465L19.7936 39.0583C18.8163 38.1032 17.2526 38.118 16.2951 39.0929C15.3375 40.0702 15.3549 41.6364 16.3297 42.5915L20.8378 47.0104L16.3297 51.4294C15.3549 52.3845 15.3375 53.9531 16.2951 54.928ZM164.306 65.5844C162.403 67.4896 159.892 68.5362 157.237 68.5362C154.582 68.5362 152.071 67.4871 150.168 65.5844C148.266 63.6818 147.217 61.1704 147.217 58.5156C147.217 55.8607 148.263 53.3494 150.168 51.4467C151.136 50.4793 152.699 50.4793 153.667 51.4467C154.634 52.4141 154.634 53.9778 153.667 54.9452C152.699 55.9151 152.165 57.1819 152.165 58.5156C152.165 59.8492 152.697 61.116 153.667 62.0859C155.604 64.0232 158.87 64.0232 160.808 62.0859C161.775 61.1185 163.339 61.1185 164.306 62.0859C165.274 63.0533 165.274 64.617 164.306 65.5844Z" />
</svg>