<svg width="187" height="201" viewBox="0 0 187 201" fill="none" xmlns="http://www.w3.org/2000/svg">
<path id="Vector" d="M184.539 195.209H151.814V178.034L165.195 166.881C166.243 166.006 166.386 164.447 165.522 163.392C164.651 162.333 163.103 162.19 162.058 163.062L151.814 171.6V145.642C151.814 144.271 150.715 143.163 149.354 143.163C147.993 143.163 146.893 144.271 146.893 145.642V154.777L136.576 144.385C135.614 143.416 134.059 143.416 133.097 144.385C132.135 145.354 132.135 146.921 133.097 147.89L146.893 161.786V195.209H133.277C132.428 184.934 124.134 177.117 113.676 177.117C111.445 177.117 109.186 177.59 107.033 178.393V118.38H156.489C157.85 118.38 158.95 117.272 158.95 115.901V71.291C158.95 53.5262 144.6 39.0724 126.963 39.0724H114.168V29.4911L139.332 17.5231C140.193 17.1142 140.742 16.2393 140.742 15.2827C140.742 14.326 140.191 13.4511 139.332 13.0422L112.759 0.402604C111.993 0.0407645 111.103 0.0952869 110.392 0.551304C109.68 1.00237 109.247 1.79048 109.247 2.64056V4.87108V27.9198V39.0724H52.9013C35.2643 39.0724 20.9145 53.5262 20.9145 71.291V114.794L12.3838 122.481C8.34611 126.127 6.98544 131.765 8.91695 136.848C10.8608 141.966 15.4595 145.146 20.9145 145.146H31.0026C46.3317 145.146 59.5915 139.753 72.7676 128.142L79.9671 121.522V168.294C76.5371 166.609 72.7824 165.719 68.8947 165.719C54.9214 165.719 43.5513 177.169 43.5513 191.246C43.5513 192.597 43.7112 193.923 43.9425 195.214H32.725V171.917C32.725 170.547 31.6227 169.439 30.2645 169.439C28.9063 169.439 27.8039 170.547 27.8039 171.917V182.096L19.0174 174.946C17.9618 174.086 16.4092 174.254 15.5579 175.318C14.7041 176.381 14.869 177.942 15.9245 178.802L27.8039 188.468V195.209H2.46053C1.10232 195.209 0 196.317 0 197.687C0 199.058 1.10232 200.166 2.46053 200.166H82.4276H104.572H184.539C185.9 200.166 187 199.058 187 197.687C187 196.317 185.9 195.209 184.539 195.209ZM113.676 182.074C121.37 182.074 127.507 187.719 128.336 195.209H107.033V183.789C109.117 182.698 111.422 182.074 113.676 182.074ZM109.247 44.0291V56.173C109.247 57.5411 110.347 58.6514 111.708 58.6514C113.069 58.6514 114.168 57.5411 114.168 56.173V44.0291H126.963C141.886 44.0291 154.029 56.2598 154.029 71.291V113.423H104.572H84.8882V71.291C84.8882 59.8063 78.8746 49.7343 69.8716 44.0291H109.247ZM69.4877 124.444C57.3007 135.186 45.0719 140.189 31.0026 140.189H20.9145C16.8891 140.189 14.4507 137.55 13.5132 135.079C12.561 132.573 12.6274 128.92 15.6662 126.174L24.3149 118.38H76.0844L69.4877 124.444ZM48.4724 191.243C48.4724 179.902 57.6329 170.673 68.8947 170.673C72.8709 170.673 76.6577 171.865 79.9671 174.026V195.209H48.9571C48.6791 193.885 48.4724 192.54 48.4724 191.243ZM84.8882 195.209V118.38H102.112V195.209H84.8882Z" fill="#016CEC"/>
</svg>
