<svg width="206" height="184" viewBox="0 0 206 184" fill="none" xmlns="http://www.w3.org/2000/svg">
<path id="Union" fill-rule="evenodd" clip-rule="evenodd" d="M205.53 14.2442C205.604 14.5361 205.616 14.8429 205.579 15.1473C205.572 15.212 205.552 15.2712 205.533 15.3311C205.52 15.3696 205.507 15.4084 205.497 15.4491C205.486 15.4946 205.476 15.5405 205.466 15.5865C205.443 15.6931 205.42 15.7999 205.371 15.9019L193.238 41.5399V165.774C193.238 175.322 185.466 183.093 175.918 183.093H111.588C102.037 183.093 94.2683 175.322 94.2683 165.774V71.7528H91.7941C84.9726 71.7528 79.4229 77.3025 79.4229 84.1239V139.794C79.4229 148.642 72.6534 155.951 63.954 156.978C62.6055 164.064 59.055 170.339 53.577 175.069C47.8739 180.231 40.3424 183.093 32.4125 183.093C24.7102 183.093 17.3963 180.372 11.7204 175.453C11.1538 175.228 10.7184 174.819 10.4512 174.29C3.98104 168.211 0.247424 159.766 0.247424 150.928C0.247424 145.43 1.52165 140.45 3.92166 136.043C1.52165 131.31 0.247424 126.342 0.247424 121.237C0.247424 115.129 1.9299 109.25 5.09939 104.108C1.77155 98.8778 0 92.8605 0 86.5982C0 68.8629 14.4297 54.4331 32.165 54.4331C49.9003 54.4331 64.3301 68.8629 64.3301 86.5982C64.3301 92.7095 62.6476 98.5858 59.4756 103.727C62.8134 108.988 64.5775 114.99 64.5775 121.237C64.5775 126.357 63.2983 131.34 60.8835 136.085C63.3033 140.856 64.5775 145.824 64.5775 150.928C64.5775 151.118 64.5727 151.314 64.5678 151.51C64.5649 151.628 64.562 151.746 64.5602 151.863C70.2187 150.644 74.4744 145.703 74.4744 139.794V84.1239C74.4744 74.5734 82.2435 66.8043 91.7941 66.8043H94.2683V17.3196C94.2683 7.76909 102.04 0 111.588 0H175.918C184.647 0 191.869 6.49981 193.052 14.9147L202.514 12.4553C202.552 12.4444 202.589 12.4455 202.627 12.4466C202.657 12.4475 202.688 12.4485 202.719 12.4429C202.922 12.4083 203.122 12.3934 203.328 12.4108C203.439 12.4182 203.545 12.433 203.654 12.4578C203.835 12.4974 204.005 12.5592 204.176 12.6409L204.196 12.6504C204.298 12.699 204.398 12.7464 204.493 12.8091C204.514 12.8238 204.538 12.8339 204.562 12.844C204.59 12.856 204.618 12.8681 204.644 12.8883C204.71 12.9405 204.762 13.0028 204.813 13.0655C204.842 13.1009 204.872 13.1364 204.904 13.1703C204.924 13.1914 204.945 13.212 204.965 13.2325C205.028 13.2941 205.089 13.3553 205.141 13.4277C205.29 13.6355 205.394 13.8607 205.47 14.1007C205.476 14.1224 205.488 14.1412 205.499 14.1602C205.511 14.1801 205.523 14.2003 205.53 14.2244C205.53 14.2269 205.529 14.2292 205.529 14.2314C205.529 14.2355 205.528 14.2393 205.53 14.2442ZM59.3816 86.5982C59.3816 71.5919 47.1713 59.3816 32.165 59.3816C17.1588 59.3816 4.94847 71.5919 4.94847 86.5982C4.94847 91.2819 6.11878 95.8023 8.32332 99.8477C14.5238 92.9619 23.1143 89.0724 32.4125 89.0724C41.5696 89.0724 50.0488 92.8258 56.2022 99.4815C58.2806 95.5302 59.3816 91.1409 59.3816 86.5982ZM31.9176 158.351C23.9184 158.351 17.0326 164.131 15.3328 172.024C20.0759 175.97 26.0809 178.145 32.4125 178.145C38.5733 178.145 44.4224 176.086 49.0838 172.36C47.7205 164.425 40.6121 158.351 32.4125 158.351H32.165H31.9176ZM32.4125 153.402H32.6599C36.683 153.402 39.8352 150.144 39.8352 145.98C39.8352 141.887 36.5048 138.557 32.4125 138.557C28.3201 138.557 24.9898 141.887 24.9898 145.98C24.9898 150.144 28.1419 153.402 32.165 153.402H32.4125ZM40.8273 155.139C46.5972 157.584 51.182 162.436 53.1812 168.431C56.5486 164.487 58.6863 159.692 59.4039 154.313C59.629 153.158 59.629 152.074 59.629 150.928C59.629 146.232 58.4018 141.64 55.982 137.283C51.1078 128.93 42.0644 123.712 32.4125 123.712C22.758 123.712 13.7172 128.93 8.81817 137.327C8.80827 137.342 8.80085 137.357 8.79095 137.372C6.37363 141.331 5.19589 145.765 5.19589 150.928C5.19589 157.178 7.4227 163.195 11.3666 168.028C13.539 162.057 18.1139 157.329 23.8318 154.998C21.4986 152.757 20.0413 149.582 20.0413 145.98C20.0413 139.158 25.591 133.609 32.4125 133.609C39.2339 133.609 44.7836 139.158 44.7836 145.98C44.7836 149.664 43.2545 152.89 40.8273 155.139ZM135.84 35.5646L160.167 47.6315L193.126 20.0042L191.384 20.457H191.382L135.84 35.5646ZM175.918 178.145C182.739 178.145 188.289 172.595 188.289 165.774V51.9935L172.462 85.4353C172.051 86.3013 171.177 86.8481 170.227 86.8481C170.165 86.8481 170.099 86.8456 170.034 86.8406C169.01 86.759 168.141 86.0563 167.854 85.0716L158.178 52.1692L121.972 34.2088L188.237 16.184C187.663 9.89446 182.358 4.94847 175.918 4.94847H111.588C104.766 4.94847 99.2168 10.4982 99.2168 17.3196V165.774C99.2168 172.595 104.766 178.145 111.588 178.145H175.918ZM163.163 51.5779L170.772 77.4509L196.081 24.0025L163.163 51.5779ZM126.433 96.4951C116.722 96.4951 109.114 104.103 109.114 113.815V118.763C109.114 128.311 116.885 136.083 126.433 136.083H161.073C170.621 136.083 178.392 128.311 178.392 118.763V113.815C178.392 104.267 170.621 96.4951 161.073 96.4951H126.433ZM173.444 113.815V118.763C173.444 125.585 167.894 131.134 161.073 131.134H126.433C119.612 131.134 114.062 125.585 114.062 118.763V113.815C114.062 106.877 119.496 101.444 126.433 101.444H161.073C167.892 101.444 173.444 106.993 173.444 113.815ZM166.021 143.506H121.485C118.763 143.506 116.289 144.743 114.557 146.475C112.825 148.207 111.588 150.681 111.588 153.402C111.588 158.846 116.042 163.299 121.485 163.299H166.021C168.743 163.299 171.217 162.062 172.949 160.33C174.681 158.598 175.918 156.124 175.918 153.402C175.918 147.959 171.464 143.506 166.021 143.506Z" fill="#016CEC"/>
</svg>
