<svg width="172" height="201" viewBox="0 0 172 201" fill="none" xmlns="http://www.w3.org/2000/svg">
<path id="Union" fill-rule="evenodd" clip-rule="evenodd" d="M104.413 46.2682C105.058 46.2682 105.704 46.0158 106.189 45.516L121.529 29.6809C121.98 29.2182 122.227 28.6021 122.227 27.9588V2.47423C122.227 1.10846 121.121 0 119.753 0C118.385 0 117.279 1.10846 117.279 2.47423V26.9568L102.636 42.0719C101.683 43.0517 101.708 44.6203 102.691 45.5704C103.171 46.0356 103.792 46.2682 104.413 46.2682ZM137.501 66.4893L137.498 66.4852C137.496 66.4821 137.495 66.479 137.493 66.4753C137.434 66.2254 137.31 66.0027 137.179 65.785C137.164 65.7597 137.154 65.7316 137.143 65.7035L137.143 65.7032C137.128 65.6656 137.114 65.6281 137.09 65.597C136.907 65.3446 136.674 65.1293 136.407 64.9611C136.405 64.9586 136.402 64.9561 136.4 64.9561C136.335 64.9162 136.261 64.8931 136.186 64.8698C136.136 64.8542 136.086 64.8385 136.038 64.8176C135.994 64.7991 135.95 64.7793 135.907 64.7596C135.775 64.7003 135.644 64.6413 135.499 64.6172C135.489 64.6147 135.482 64.6097 135.472 64.6073L116.423 61.6382C116.146 61.5961 115.876 61.611 115.611 61.6555C115.606 61.6562 115.601 61.6563 115.596 61.6561L115.585 61.6555C115.577 61.6549 115.568 61.6543 115.559 61.6555L89.7085 66.7796L84.7253 59.3941L90.8268 46.0604C91.1138 45.432 91.1262 44.712 90.859 44.0736L83.6837 27.0014C83.6781 26.9875 83.6694 26.9775 83.6607 26.9674C83.6539 26.9596 83.647 26.9517 83.6416 26.942C83.6082 26.8705 83.5626 26.8101 83.5165 26.7492C83.4908 26.7154 83.4651 26.6813 83.4412 26.6451L83.4079 26.5932C83.3036 26.4302 83.2013 26.2703 83.0627 26.1428C83.0402 26.1218 83.0138 26.1071 82.9874 26.0925C82.9673 26.0813 82.9473 26.0702 82.929 26.0562C82.7262 25.8929 82.5134 25.747 82.2734 25.6554C82.2092 25.63 82.1405 25.6209 82.0711 25.6116C82.0255 25.6055 81.9795 25.5994 81.9344 25.5886C81.9087 25.5827 81.8831 25.5767 81.8575 25.5708C81.6892 25.5314 81.5242 25.4928 81.348 25.4971C81.3401 25.4971 81.3326 25.4955 81.3254 25.4936L81.319 25.4919L81.3115 25.4898L81.3039 25.4882C81.3005 25.4876 81.297 25.4872 81.2936 25.4872C51.3875 26.7985 27.959 51.2514 27.959 81.1549C27.959 98.5834 36.2848 115.23 50.2519 125.711C56.0539 129.949 59.3818 136.437 59.3818 143.506V155.135C59.3818 156.04 59.8939 156.8 60.6189 157.23V163.547H60.3715C59.0057 163.547 57.8972 164.653 57.8972 166.021C57.8972 167.389 59.0057 168.495 60.3715 168.495H60.6189V174.186H60.3715C59.0057 174.186 57.8972 175.292 57.8972 176.66C57.8972 178.029 59.0057 179.135 60.3715 179.135H60.6189V182.351C60.6189 186.443 63.9492 189.774 68.0416 189.774H71.0181C72.1958 195.737 77.5229 200.166 83.6293 200.166C89.9311 200.166 95.0825 195.583 96.2429 189.774H99.4644C103.557 189.774 106.887 186.443 106.887 182.351V179.135H107.134C108.503 179.135 109.609 178.029 109.609 176.66C109.609 175.292 108.503 174.186 107.134 174.186H106.887V168.495H107.134C108.503 168.495 109.609 167.389 109.609 166.021C109.609 164.653 108.503 163.547 107.134 163.547H106.887V157.233C107.614 156.802 108.124 156.045 108.124 155.137V143.506C108.124 136.385 111.536 129.64 117.276 125.444C132.557 113.986 140.787 95.6911 139.29 76.5133C139.031 73.1034 138.257 69.7576 137.509 66.5223L137.503 66.4951L137.502 66.4923L137.501 66.4893ZM101.939 182.351C101.939 183.717 100.83 184.825 99.4644 184.825H68.0416C66.6783 184.825 65.5674 183.717 65.5674 182.351V179.135H101.939V182.351ZM101.939 174.186H65.5674V168.495H101.939V174.186ZM65.5674 163.547V157.609H75.2169H92.0417H101.939V163.547H65.5674ZM77.6911 135.835H89.5674V152.66H77.6911V135.835ZM114.334 121.468C107.347 126.572 103.176 134.811 103.176 143.506V152.66H94.5159V133.361V119.753C94.5159 117.212 95.9905 114.889 98.299 113.825L103.497 111.35C104.732 110.762 105.257 109.285 104.67 108.052C104.081 106.818 102.612 106.296 101.372 106.88L96.2008 109.341C92.1703 111.2 89.5674 115.289 89.5674 119.753V130.887H77.6911V119.753C77.6911 115.287 75.0882 111.2 71.0849 109.356L65.889 106.882C64.6544 106.296 63.1772 106.815 62.5909 108.052C62.0045 109.285 62.5265 110.762 63.7612 111.35L68.9843 113.837C71.268 114.891 72.7426 117.212 72.7426 119.755V133.364V152.663H64.3302V143.506C64.3302 134.841 60.2626 126.896 53.1962 121.732C40.491 112.202 32.9075 97.0321 32.9075 81.1549C32.9075 54.4778 53.3892 32.6154 79.8239 30.5866L85.8759 44.9891L80.3781 57.004L60.5991 55.1854C59.2284 55.0666 58.0333 56.0637 57.9096 57.4221C57.7834 58.7829 58.7855 59.9879 60.1463 60.1116L80.5068 61.9846L86.5291 70.9091C86.9942 71.5995 87.7686 71.9978 88.5802 71.9978C88.7385 71.9978 88.9018 71.983 89.0602 71.9508L110.89 67.6234L100.615 83.9533L80.7765 89.1492C79.4552 89.4956 78.6635 90.849 79.0099 92.1702C79.2993 93.2861 80.3039 94.021 81.4 94.021C81.6053 94.021 81.8181 93.9962 82.0284 93.9393L102.81 88.496C103.418 88.3376 103.943 87.9517 104.279 87.4197L117.269 66.7772L133.052 69.239C133.631 71.7875 134.163 74.3805 134.356 76.8943C135.722 94.3797 128.227 111.049 114.334 121.468ZM135.093 45.031H169.238C170.606 45.031 171.712 46.1395 171.712 47.5052C171.712 48.871 170.606 49.9795 169.238 49.9795H135.093C133.725 49.9795 132.619 48.871 132.619 47.5052C132.619 46.1395 133.725 45.031 135.093 45.031ZM140.537 30.4331C141.205 30.4331 141.868 30.1659 142.355 29.6364L156.953 13.8013C157.878 12.7968 157.817 11.2306 156.81 10.3052C155.805 9.37984 154.241 9.44417 153.314 10.4487L138.716 26.2838C137.79 27.2883 137.852 28.8545 138.859 29.7799C139.334 30.2154 139.938 30.4331 140.537 30.4331ZM30.4331 144.248L0 133.361L15.8351 119.258L30.4331 121.237V144.248ZM150.186 80.4125L145.485 115.547L168.99 99.2167L166.516 81.1548L150.186 80.4125ZM44.5366 3.71144H54.4335L58.6397 20.0414L35.6293 30.4332L44.5366 3.71144Z" fill="#016CEC"/>
</svg>
