<svg width="32" height="32" viewBox="0 0 32 32" fill="none" xmlns="http://www.w3.org/2000/svg">
<path fill-rule="evenodd" clip-rule="evenodd" d="M3.11209 15.1116C4.38575 12.7803 8.4461 6.66663 16 6.66663C23.5539 6.66663 27.6142 12.7803 28.8879 15.1116C29.1045 15.5079 29.2127 15.7061 29.2002 15.9851C29.1878 16.2641 29.0593 16.4562 28.8024 16.8404C27.2682 19.1345 22.5196 25.3333 16 25.3333C9.48035 25.3333 4.73178 19.1345 3.19763 16.8404C2.9407 16.4562 2.81223 16.2641 2.79975 15.9851C2.78727 15.7061 2.89554 15.5079 3.11209 15.1116ZM16 20C18.2091 20 20 18.2091 20 16C20 13.7908 18.2091 12 16 12C13.7909 12 12 13.7908 12 16C12 18.2091 13.7909 20 16 20Z" fill="#F2F2F2"/>
<path d="M16 6.66663C8.4461 6.66663 4.38575 12.7803 3.11209 15.1116C2.89554 15.5079 2.78727 15.7061 2.79975 15.9851C2.81223 16.2641 2.9407 16.4562 3.19763 16.8404C4.73178 19.1345 9.48035 25.3333 16 25.3333C22.5196 25.3333 27.2682 19.1345 28.8024 16.8404C29.0593 16.4562 29.1878 16.2641 29.2002 15.9851C29.2127 15.7061 29.1045 15.5079 28.8879 15.1116C27.6142 12.7803 23.5539 6.66663 16 6.66663Z" stroke="#333333" stroke-width="1.2"/>
<circle cx="16" cy="16" r="4" stroke="#333333" stroke-width="1.2"/>
</svg>
