<svg width="32" height="32" viewBox="0 0 32 32" fill="none" xmlns="http://www.w3.org/2000/svg">
<path d="M9.33334 14.6667C9.33334 12.1525 9.33334 10.8955 10.1144 10.1144C10.8954 9.33337 12.1525 9.33337 14.6667 9.33337H17.3333C19.8475 9.33337 21.1046 9.33337 21.8856 10.1144C22.6667 10.8955 22.6667 12.1525 22.6667 14.6667V17.3334C22.6667 19.8475 22.6667 21.1046 21.8856 21.8857C21.1046 22.6667 19.8475 22.6667 17.3333 22.6667H14.6667C12.1525 22.6667 10.8954 22.6667 10.1144 21.8857C9.33334 21.1046 9.33334 19.8475 9.33334 17.3334V14.6667Z" stroke="#333333"/>
<rect x="13.3333" y="13.3334" width="5.33333" height="5.33333" rx="1" fill="#333333"/>
<path d="M13.3333 9.33337V5.33337" stroke="#333333" stroke-linecap="round"/>
<path d="M18.6667 9.33337V5.33337" stroke="#333333" stroke-linecap="round"/>
<path d="M22.6667 13.3334L26.6667 13.3334" stroke="#333333" stroke-linecap="round"/>
<path d="M22.6667 18.6667L26.6667 18.6667" stroke="#333333" stroke-linecap="round"/>
<path d="M13.3333 26.6666V22.6666" stroke="#333333" stroke-linecap="round"/>
<path d="M18.6667 26.6666V22.6666" stroke="#333333" stroke-linecap="round"/>
<path d="M5.33334 13.3334L9.33334 13.3334" stroke="#333333" stroke-linecap="round"/>
<path d="M5.33334 18.6667L9.33334 18.6667" stroke="#333333" stroke-linecap="round"/>
</svg>
