<svg width="32" height="32" viewBox="0 0 32 32" fill="none" xmlns="http://www.w3.org/2000/svg">
<g id="Group">
<path id="Vector" d="M31.9977 15.9989C31.9977 7.16233 24.8354 0 15.9989 0C7.16233 0 0 7.16233 0 15.9989C0 23.9845 5.85052 30.6033 13.4991 31.8028V20.6224H9.43743V15.9966H13.4991V12.4716C13.4991 8.46269 15.8865 6.24726 19.5422 6.24726C21.292 6.24726 23.1245 6.55916 23.1245 6.55916V10.497H21.1063C19.1179 10.497 18.4986 11.7308 18.4986 12.9945V15.9966H22.9364L22.2277 20.6224H18.5009V31.8028C26.1495 30.6033 32 23.9845 32 15.9989H31.9977Z" fill="white"/>
<path id="Vector_2" d="M22.2256 20.6247L22.9342 15.9989H18.4965V12.9968C18.4965 11.7308 19.1157 10.4993 21.1041 10.4993H23.1223V6.56148C23.1223 6.56148 21.2921 6.24957 19.54 6.24957C15.8843 6.24957 13.4969 8.46501 13.4969 12.4739V15.9989H9.43524V20.6247H13.4969V31.8051C14.311 31.9335 15.1458 32 15.9967 32C16.8475 32 17.6824 31.9335 18.4965 31.8051V20.6247H22.2233H22.2256Z" fill="#0189F1"/>
</g>
</svg>
