<svg width="32" height="32" viewBox="0 0 32 32" fill="none" xmlns="http://www.w3.org/2000/svg">
<g id="Group">
<path id="Vector" d="M15.9989 31.9977C24.8348 31.9977 31.9977 24.8348 31.9977 15.9989C31.9977 7.16295 24.8348 1.52588e-05 15.9989 1.52588e-05C7.16293 1.52588e-05 0 7.16295 0 15.9989C0 24.8348 7.16293 31.9977 15.9989 31.9977Z" fill="white"/>
<g id="Group_2">
<path id="Vector_2" d="M20.9647 9.9463C20.3569 9.9463 19.8639 10.4394 19.8639 11.0471C19.8639 11.6549 20.3569 12.148 20.9647 12.148C21.5724 12.148 22.0655 11.6549 22.0655 11.0471C22.0655 10.4394 21.5724 9.9463 20.9647 9.9463Z" fill="#0189F1"/>
<path id="Vector_3" d="M16.0752 11.3568C13.5272 11.3568 11.4562 13.4301 11.4562 15.9758C11.4562 18.5215 13.5295 20.5947 16.0752 20.5947C18.6209 20.5947 20.6941 18.5215 20.6941 15.9758C20.6941 13.4301 18.6209 11.3568 16.0752 11.3568ZM16.0752 18.9366C14.4423 18.9366 13.1167 17.6087 13.1167 15.9781C13.1167 14.3474 14.4446 13.0196 16.0752 13.0196C17.7058 13.0196 19.0337 14.3474 19.0337 15.9781C19.0337 17.6087 17.7058 18.9366 16.0752 18.9366Z" fill="#0189F1"/>
<path id="Vector_4" d="M19.742 25.3559H12.2516C9.14406 25.3559 6.61676 22.8285 6.61676 19.721V12.2307C6.61676 9.1231 9.14406 6.59576 12.2516 6.59576H19.742C22.8495 6.59576 25.3769 9.1231 25.3769 12.2307V19.721C25.3769 22.8285 22.8495 25.3559 19.742 25.3559ZM12.2516 8.36169C10.1188 8.36169 8.38268 10.0978 8.38268 12.2307V19.721C8.38268 21.8538 10.1188 23.59 12.2516 23.59H19.742C21.8748 23.59 23.6109 21.8538 23.6109 19.721V12.2307C23.6109 10.0955 21.8748 8.36169 19.742 8.36169H12.2516Z" fill="#0189F1"/>
</g>
</g>
</svg>
