<svg width="252" height="252" viewBox="0 0 252 252" fill="none" xmlns="http://www.w3.org/2000/svg">
<circle cx="126" cy="126" r="120.5" fill="#016CEC" stroke="#202020" stroke-width="11"/>
<path d="M102.851 131.375C100.766 131.375 98.7037 130.773 96.665 129.568C94.6727 128.41 92.1243 126.603 89.02 124.147C86.7033 122.294 84.711 120.788 83.043 119.63C81.4213 118.518 79.6375 117.568 77.6915 116.78C75.7918 115.992 73.8458 115.599 71.8535 115.599C71.1585 115.599 70.6257 115.622 70.255 115.668L80.6105 67.5045C77.5062 68.7555 75.0968 70.6783 73.3825 73.273C71.7145 75.8213 70.8805 78.9488 70.8805 82.6555C70.8805 84.3698 71.0427 85.5745 71.367 86.2695C71.6913 86.9182 71.8535 87.2888 71.8535 87.3815C69.3515 87.3815 67.475 86.8718 66.224 85.8525C65.0193 84.7868 64.417 83.0493 64.417 80.64C64.417 77.6747 65.6217 74.802 68.031 72.022C70.4867 69.1957 73.6142 66.9253 77.4135 65.211C81.2128 63.4503 85.0122 62.57 88.8115 62.57C89.4602 62.57 90.3868 62.6163 91.5915 62.709L80.8885 112.61C82.1858 112.934 83.5063 113.398 84.85 114C86.24 114.649 87.908 115.506 89.854 116.572C92.8657 118.193 95.4372 119.421 97.5685 120.255C99.6998 121.135 101.924 121.576 104.241 121.576C106.326 121.576 108.272 121.205 110.079 120.464C109.708 123.846 108.874 126.51 107.577 128.456C106.326 130.402 104.75 131.375 102.851 131.375ZM100.272 114.417C96.8438 114.417 94.1797 113.537 92.28 111.776C90.3803 109.969 89.4305 107.166 89.4305 103.366C89.4305 100.169 90.056 96.6482 91.307 92.8025C92.558 88.9568 94.5967 85.644 97.423 82.864C100.249 80.0377 103.84 78.6245 108.195 78.6245C113.292 78.6245 115.84 80.8485 115.84 85.2965C115.84 87.8912 115.099 90.2773 113.616 92.455C112.134 94.6327 110.165 96.3933 107.709 97.737C105.253 99.0343 102.635 99.7757 99.8555 99.961C99.7628 101.351 99.7165 102.278 99.7165 102.741C99.7165 105.011 100.11 106.563 100.898 107.397C101.686 108.185 102.96 108.579 104.72 108.579C107.222 108.579 109.354 108 111.114 106.841C112.921 105.683 114.891 103.922 117.022 101.559H119.385C114.242 110.131 107.871 114.417 100.272 114.417ZM100.411 96.625C102.126 96.5323 103.747 95.93 105.276 94.818C106.852 93.706 108.103 92.2928 109.029 90.5785C110.002 88.8642 110.489 87.0572 110.489 85.1575C110.489 83.2578 109.91 82.308 108.751 82.308C107.083 82.308 105.439 83.7675 103.817 86.6865C102.242 89.6055 101.106 92.9183 100.411 96.625ZM123.54 114.417C121.177 114.417 119.417 113.699 118.258 112.262C117.146 110.826 116.59 108.926 116.59 106.563C116.59 105.359 116.729 104.131 117.007 102.88L121.455 82.03H119.162L119.718 79.25H122.011L124.096 69.659L134.382 68.269C133.965 70.0297 133.734 71.0722 133.687 71.3965C133.363 72.6938 132.807 75.3117 132.019 79.25H136.189L135.633 82.03H131.463L127.015 102.88C126.784 103.899 126.668 104.71 126.668 105.312C126.668 106.98 127.479 107.814 129.1 107.814C129.934 107.814 130.537 107.745 130.907 107.606C129.981 110.293 128.892 112.1 127.641 113.027C126.39 113.954 125.023 114.417 123.54 114.417ZM142.887 77.2345C143.86 76.2152 144.624 75.2653 145.18 74.385C145.736 73.5047 146.014 72.7865 146.014 72.2305C146.014 71.9062 145.899 71.605 145.667 71.327C145.482 71.049 145.18 70.7478 144.763 70.4235C144.115 69.9138 143.605 69.381 143.234 68.825C142.864 68.269 142.678 67.5277 142.678 66.601C142.678 65.1647 143.119 64.0063 143.999 63.126C144.879 62.1993 145.991 61.736 147.335 61.736C148.771 61.736 149.93 62.1993 150.81 63.126C151.737 64.0063 152.2 65.1647 152.2 66.601C152.2 68.408 151.435 70.4003 149.906 72.578C148.424 74.7093 146.431 76.609 143.929 78.277L142.887 77.2345ZM160.698 114.417C158.474 114.417 156.598 114 155.069 113.166C153.54 112.286 152.405 111.174 151.663 109.83C150.922 108.44 150.551 107.004 150.551 105.521C150.551 103.992 150.922 102.671 151.663 101.559C152.358 100.401 153.216 99.5672 154.235 99.0575C156.042 95.8142 157.617 92.5477 158.961 89.258C160.305 85.922 161.579 82.3312 162.783 78.4855L173.069 77.0955C173.301 83.0262 173.695 89.4433 174.251 96.347C174.483 99.127 174.598 101.142 174.598 102.393C174.598 105.22 173.88 107.536 172.444 109.343C171.008 111.15 169.224 112.448 167.092 113.235C165.007 114.023 162.876 114.417 160.698 114.417ZM158.474 108.926C160.189 108.926 161.625 108.417 162.783 107.397C163.942 106.378 164.521 104.733 164.521 102.463C164.521 101.073 164.382 99.127 164.104 96.625C163.641 91.343 163.339 87.7985 163.2 85.9915C162.088 89.6518 160.212 94.0303 157.571 99.127C158.637 99.683 159.169 100.494 159.169 101.559C159.169 102.44 158.868 103.227 158.266 103.922C157.71 104.617 156.992 104.965 156.111 104.965C155.138 104.965 154.513 104.664 154.235 104.061C154.235 105.729 154.559 106.957 155.208 107.745C155.903 108.533 156.992 108.926 158.474 108.926ZM84.7805 154.991H83.9465C79.8228 154.991 76.6027 156.033 74.286 158.118C72.0157 160.157 70.8805 163.794 70.8805 169.03C70.8805 170.744 71.0427 171.949 71.367 172.644C71.6913 173.293 71.8535 173.663 71.8535 173.756C69.3515 173.756 67.475 173.246 66.224 172.227C65.0193 171.161 64.417 169.424 64.417 167.014C64.417 163.725 65.2278 160.736 66.8495 158.049C68.4712 155.315 71.0427 153.114 74.564 151.446C78.1317 149.778 82.6492 148.944 88.1165 148.944C91.1745 148.944 94.4642 149.222 97.9855 149.778C100.951 150.288 103.592 150.543 105.909 150.543C108.874 150.543 111.561 150.056 113.971 149.083C113.878 152.095 113.113 154.319 111.677 155.755C110.241 157.192 108.109 157.91 105.283 157.91C103.8 157.91 102.318 157.794 100.835 157.562C99.3523 157.331 97.2442 156.937 94.5105 156.381L84.9195 201H74.9115L84.7805 154.991ZM105.8 201.417C103.159 201.417 100.959 200.514 99.1979 198.707C97.4373 196.899 96.5569 194.073 96.5569 190.227C96.5569 186.799 97.2288 183.208 98.5724 179.455C99.9624 175.656 102.001 172.459 104.688 169.864C107.422 167.223 110.665 165.903 114.418 165.903C116.318 165.903 117.731 166.227 118.658 166.875C119.585 167.524 120.048 168.381 120.048 169.447V169.933L120.812 166.25H130.82L125.816 189.88C125.631 190.575 125.538 191.316 125.538 192.104C125.538 194.096 126.488 195.092 128.388 195.092C129.685 195.092 130.797 194.49 131.724 193.285C132.697 192.081 133.461 190.505 134.017 188.559H136.936C135.222 193.563 133.091 196.969 130.542 198.776C128.04 200.537 125.515 201.417 122.967 201.417C121.021 201.417 119.446 200.884 118.241 199.818C117.083 198.706 116.388 197.108 116.156 195.023C114.812 196.923 113.306 198.475 111.638 199.679C110.017 200.838 108.071 201.417 105.8 201.417ZM110.318 194.675C111.476 194.675 112.611 194.143 113.723 193.077C114.882 191.965 115.669 190.459 116.086 188.559L119.422 172.852C119.422 172.25 119.191 171.671 118.727 171.115C118.264 170.513 117.546 170.211 116.573 170.211C114.72 170.211 113.052 171.3 111.569 173.478C110.086 175.609 108.928 178.204 108.094 181.262C107.26 184.274 106.843 186.938 106.843 189.254C106.843 191.571 107.167 193.054 107.816 193.702C108.511 194.351 109.345 194.675 110.318 194.675ZM140.923 201.417C138.699 201.417 136.892 200.722 135.502 199.332C134.159 197.942 133.487 195.857 133.487 193.077C133.487 191.919 133.672 190.413 134.043 188.559L141.479 153.74L151.765 152.35L143.773 189.88C143.588 190.575 143.495 191.316 143.495 192.104C143.495 193.031 143.703 193.702 144.12 194.119C144.584 194.49 145.325 194.675 146.344 194.675C147.688 194.675 148.939 194.119 150.097 193.007C151.256 191.849 152.09 190.366 152.599 188.559H155.518C153.804 193.563 151.603 196.969 148.916 198.776C146.229 200.537 143.564 201.417 140.923 201.417ZM178.704 201.417C175.831 201.417 173.653 200.745 172.171 199.401C170.688 198.011 169.947 196.042 169.947 193.494C169.947 192.382 170.086 191.177 170.364 189.88L170.92 187.169C171.105 186.382 171.198 185.525 171.198 184.598C171.198 182.374 170.364 181.262 168.696 181.262C167.954 181.262 167.167 181.47 166.333 181.887C165.545 182.304 164.618 182.953 163.553 183.833L159.939 201H149.931L160.008 153.74L170.294 152.35L165.082 176.814L178.495 166.25H185.376L171.476 175.91C172.171 175.725 172.935 175.632 173.769 175.632C176.271 175.632 178.171 176.397 179.468 177.926C180.766 179.455 181.414 181.401 181.414 183.764C181.414 184.737 181.322 185.617 181.136 186.405L180.372 189.88C180.14 190.714 180.024 191.455 180.024 192.104C180.024 193.818 180.928 194.675 182.735 194.675C183.754 194.675 184.403 194.606 184.681 194.467C184.959 194.328 185.121 194.258 185.167 194.258C185.075 195.787 184.634 197.085 183.847 198.15C183.105 199.216 182.225 200.027 181.206 200.583C180.233 201.139 179.399 201.417 178.704 201.417Z" fill="white"/>
</svg>
