<svg width="32" height="32" viewBox="0 0 32 32" fill="none" xmlns="http://www.w3.org/2000/svg">
<g id="Folder_alt_duotone">
<path id="Vector 187" d="M10.6667 9.33337H4V26C4 27.1046 4.89543 28 6 28H26C27.1046 28 28 27.1046 28 26V13.3334L26.6667 14.6667H14.6667L10.6667 9.33337Z" fill="#F2F2F2"/>
<path id="Rectangle 1" d="M4 8C4 6.11438 4 5.17157 4.58579 4.58579C5.17157 4 6.11438 4 8 4H24C25.8856 4 26.8284 4 27.4142 4.58579C28 5.17157 28 6.11438 28 8V24C28 25.8856 28 26.8284 27.4142 27.4142C26.8284 28 25.8856 28 24 28H8C6.11438 28 5.17157 28 4.58579 27.4142C4 26.8284 4 25.8856 4 24V8Z" stroke="#333333" stroke-width="1.2"/>
<path id="Rectangle 2" d="M4 9.33337H8.66667C9.64809 9.33337 10.1388 9.33337 10.5611 9.54452C10.9834 9.75567 11.2778 10.1482 11.8667 10.9334L13.4667 13.0667C14.0555 13.8518 14.3499 14.2444 14.7722 14.4556C15.1945 14.6667 15.6852 14.6667 16.6667 14.6667H24C25.8856 14.6667 26.8284 14.6667 27.4142 14.0809C28 13.4951 28 12.5523 28 10.6667V10.6667" stroke="#333333" stroke-width="1.2"/>
<path id="Vector 55" d="M9.33334 21.3334H20" stroke="#333333" stroke-width="1.2" stroke-linecap="round"/>
</g>
</svg>
