<svg width="32" height="33" viewBox="0 0 32 33" fill="none" xmlns="http://www.w3.org/2000/svg">
<g id="Group">
<path id="Vector" d="M15.9989 32.9954C24.8348 32.9954 31.9977 25.8325 31.9977 16.9966C31.9977 8.16064 24.8348 0.997711 15.9989 0.997711C7.16293 0.997711 0 8.16064 0 16.9966C0 25.8325 7.16293 32.9954 15.9989 32.9954Z" fill="white"/>
<path id="Vector_2" d="M24.8379 11.5154C24.2829 11.7654 23.6706 11.919 23.0743 12.0177C23.3587 11.9695 23.7738 11.4558 23.9412 11.2494C24.1958 10.9329 24.4067 10.5705 24.526 10.1806C24.542 10.1508 24.5535 10.1118 24.5214 10.0889C24.4824 10.0728 24.4572 10.082 24.4274 10.0958C23.76 10.4536 23.0697 10.7127 22.3358 10.8962C22.2739 10.9122 22.2303 10.8962 22.1913 10.8572C22.1294 10.7884 22.072 10.7242 22.0078 10.6691C21.6982 10.4054 21.368 10.2013 20.9941 10.0476C20.5034 9.84809 19.969 9.76323 19.4392 9.79763C18.9255 9.83203 18.4209 9.97652 17.9646 10.215C17.5082 10.4536 17.1 10.7861 16.7743 11.1874C16.4395 11.6025 16.1894 12.091 16.0633 12.6094C15.9418 13.1093 15.951 13.6047 16.0266 14.1115C16.0381 14.1964 16.0312 14.2079 15.9532 14.1964C13.0796 13.7698 10.6967 12.7401 8.76336 10.5361C8.6785 10.4398 8.63496 10.4398 8.56615 10.543C7.71988 11.8112 8.1304 13.8501 9.18766 14.85C9.32756 14.983 9.47432 15.1161 9.63027 15.2399C9.57294 15.2514 8.86885 15.1757 8.24275 14.85C8.15789 14.7973 8.11665 14.8271 8.10977 14.9234C8.10289 15.061 8.11432 15.1872 8.13267 15.3362C8.2955 16.6228 9.18538 17.8108 10.4055 18.2741C10.55 18.336 10.7105 18.3888 10.8665 18.414C10.589 18.4759 10.3022 18.5195 9.50642 18.4553C9.4078 18.4369 9.36883 18.4851 9.40782 18.5814C10.0064 20.2143 11.2999 20.6982 12.2677 20.9757C12.3961 20.9987 12.5268 20.9987 12.6576 21.0285C12.6507 21.0399 12.6415 21.04 12.6347 21.0514C12.3136 21.5399 11.2013 21.9046 10.683 22.0857C9.74038 22.416 8.71294 22.5628 7.7176 22.4642C7.55936 22.4412 7.52495 22.4435 7.48137 22.4642C7.4378 22.4917 7.47678 22.5284 7.52723 22.5697C7.72905 22.7027 7.93545 22.8219 8.14415 22.9366C8.77713 23.2714 9.43766 23.5398 10.1257 23.7301C13.6874 24.714 17.7008 23.9916 20.3749 21.3335C22.4757 19.2465 23.2119 16.3683 23.2119 13.4877C23.2119 13.3754 23.3449 13.3134 23.4252 13.2538C23.971 12.8433 24.4113 12.3525 24.8195 11.8044C24.9113 11.6805 24.9113 11.5704 24.9113 11.5269V11.5108C24.9113 11.4649 24.9113 11.4787 24.8402 11.5108L24.8379 11.5154Z" fill="#016CEC"/>
</g>
</svg>
